<?xml version="1.0" encoding="UTF-8"?>
<svg width="75px" height="69px" viewBox="0 0 75 69" version="1.1" xmlns="http://www.w3.org/2000/svg" xmlns:xlink="http://www.w3.org/1999/xlink">
    <!-- Generator: sketchtool 49.1 (51147) - http://www.bohemiancoding.com/sketch -->
    <title>27146958-C60B-4231-86C7-16448BF4A846</title>
    <desc>Created with sketchtool.</desc>
    <defs></defs>
    <g id="Mobile" stroke="none" stroke-width="1" fill="none" fill-rule="evenodd">
        <g id="D.1---Home" transform="translate(-602.000000, -1107.000000)" fill-rule="nonzero">
            <g id="Feature-Overview-Pane" transform="translate(-3.000000, 699.000000)">
                <g id="Features" transform="translate(118.000000, 371.750000)">
                    <g id="Fitness-Monitoring" transform="translate(382.500000, 1.780000)">
                        <g id="Activity-Icon" transform="translate(106.482600, 37.000000)">
                            <path d="M19.5345701,1.13670074e-05 C8.43538255,-0.011154137 0.16356118,8.20485319 0,18.0476744 C0,25.2953749 4.98028449,32.7873422 11.626399,40.4192219 C18.2725135,48.0513593 26.7459165,55.8051147 34.2687416,63.0863117 C34.9252408,63.7145001 36.1095596,63.7145001 36.7660588,63.0863117 C44.2888839,55.8051147 52.7622879,48.0513593 59.4084015,40.4192219 C66.0545151,32.7873422 71.0348004,25.2953749 71.0348004,18.0476744 C71.0348004,6.87529932 62.0962518,1.13670074e-05 52.3881653,1.13670074e-05 C45.5237884,1.13670074e-05 39.7835248,5.48545173 35.5451482,8.94323656 C30.8678706,4.98343349 25.3750487,0.101617454 19.5345701,1.13670074e-05 Z" id="Shape" stroke="#2AB1C3" stroke-width="4"></path>
                            <g id="Heartbeat" transform="translate(13.085358, 13.085358)" fill="#FAC45F">
                                <path d="M46.1240225,17.3036565 L37.8873488,17.3036565 L32.396233,9.87738892 C32.1280396,9.50014673 31.6695037,9.29738512 31.202539,9.34954511 C30.7355743,9.4017051 30.335669,9.70035463 30.1614765,10.1270114 L24.2234094,24.6675184 L17.838391,0.890981146 C17.6804054,0.373908431 17.2003119,0.0146314757 16.6483753,0.000435442054 C16.0964388,-0.0137605916 15.5976761,0.320339781 15.4120841,0.828575536 L9.7294177,17.3036565 L1.81199491,17.3036565 C1.10672525,17.3036565 0.534991232,17.8624553 0.534991232,18.5517686 C0.534991232,19.241082 1.10672525,19.7998808 1.81199491,19.7998808 L10.6871705,19.7998808 C11.2430028,19.7977395 11.7335773,19.4444417 11.900324,18.9262023 L16.433687,5.57140186 L22.7548552,28.9735054 C22.8912699,29.4951615 23.3545774,29.872516 23.9041585,29.9095896 L23.9680087,29.9095896 C24.5070619,29.916554 24.9925242,29.5919105 25.1811622,29.0983167 L31.6938809,13.1848862 L36.227244,19.300636 C36.4684117,19.6149179 36.8469007,19.7998808 37.2488469,19.7998808 L46.1240225,19.7998808 C46.8292921,19.7998808 47.4010262,19.241082 47.4010262,18.5517686 C47.4010262,17.8624553 46.8292921,17.3036565 46.1240225,17.3036565 Z" id="Shape"></path>
                            </g>
                        </g>
                    </g>
                </g>
            </g>
        </g>
    </g>
</svg>