<svg xmlns="http://www.w3.org/2000/svg" width="136" height="108" viewBox="0 0 136 108">
    <g fill="none" fill-rule="nonzero">
        <path fill="#474949" stroke="#FFF" d="M134.212 13.323c-1.483-2.458-4.603-3.654-9.541-3.654-.617 0-1.27.019-1.954.055-1.49-2.803-6.005-8.221-18.866-9.183l-.159-.011-.157.013c-.305.024-6.91.68-12.269 11.203a7.49 7.49 0 0 0-1.335 2.91c-.072.175-.146.34-.216.519-4.727 11.8-11.286 17.988-32.773 17.492-3.069-.07-6.548-.15-9.618-.15-10.9 0-20.03.728-25.14 7.736-3.048-1.257-10.11-5.092-9.878-13.614.15-5.512 3.628-8.015 6.833-8.518 2.89-.453 6.361.623 7.41 3.56 1.66 4.652 4.898 5.596 7.166 4.992 2.867-.764 4.661-3.79 4.084-6.886-.603-3.233-3.724-7.884-8.524-10.51-3.32-1.818-8.769-3.395-15.855-.579-5.438 2.162-9.342 5.79-11.29 10.49C.05 24.206.249 30.494 2.659 36.012c1.738 3.982 8.11 11.964 15.712 14.283-.028.168-.06.328-.086.5-.941 6.29-.869 11.154-.81 15.064.1 6.854.151 10.29-4.804 14.55l-.527.442-.139.656c-.333 1.63-3.12 16.04 1.623 21.697l.613.646H45.178l-.03-1.973c-.065-4.686-1.386-7.671-3.923-9.037-2.429-1.31-5.134-.6-6.797.099-.312-.436-.53-.914-.506-1.39.048-.925.956-1.775 1.305-2.026 11.205-7.934 14.075-16.092 14.794-20.21C56.26 71 64.894 72.821 73.16 72.821c3.52 0 6.719-.323 9.548-.991l-.292 16.86c-.025 1.19-.112 11.828 4.365 16.368 1.379 1.397 3.104 2.271 4.994 2.271h25.228v-2.299c0-4.88-1.317-8.232-4.041-9.962-2.515-1.6-5.425-1.309-7.386-.828-4.293-14.436 5.184-37.128 5.286-37.365l-.16-.068c1.814-5.18 3.104-12.473 2.142-22.23 4.788-.558 15.704-2.479 19.01-8.619 2.278-4.227 4.525-9.04 2.359-12.636zm-23.375 85.306c1.325.85 1.891 2.321 2.103 4.643h-6.592c.041-1.355-.072-3.11-.66-4.773 1.25-.421 3.597-.865 5.15.13zm-8.142-93.656c2.818 5.32 5.695 13.042 3.987 15.39-.717.982-2.682.822-4.203.514-6.8-1.375-8.212-3.404-8.503-4.214a1.99 1.99 0 0 1-.101-.868c3.202-7.493 6.962-10.003 8.82-10.822zM6.405 34.4c-1.98-4.533-2.166-9.641-.5-13.665 1.54-3.717 4.578-6.497 9.03-8.266 4.499-1.79 8.66-1.667 12.367.364 3.874 2.121 6.122 5.777 6.478 7.696.223 1.198-.511 2.063-1.125 2.227-.773.206-1.659-.747-2.26-2.429-1.582-4.434-6.586-7.046-11.898-6.213-4.605.725-10.058 4.41-10.277 12.417-.262 9.617 6.758 15.093 11.939 17.311-.33.776-.63 1.603-.895 2.485-6.247-2.05-11.634-9.122-12.86-11.927zm26.471 51.804c-.29.202-2.844 2.048-3.029 5.08-.123 2.017.81 3.916 2.774 5.658l1.149 1.008 1.3-.839c.547-.342 2.86-1.515 4.209-.789.832.45 1.397 1.73 1.645 3.469h-9.98c-.044-1.88-.416-4.437-1.927-6.144-1.104-1.246-2.632-1.857-4.423-1.75-.083-1.313.455-3.585 3.948-6.313 6.268-4.894 12.733-9.936 14.776-18.293.76.255 1.692.557 2.763.884-.401 2.993-2.497 10.449-13.205 18.03zm68.407 7.778c-.807-.279-1.757-.46-2.885-.46-.7 0-1.446.068-2.233.204.668-6.324 2.505-17.12 6.19-23.504-1.727 7.366-2.858 16.254-1.072 23.76zm.636-29.868c-8.463 8.228-10.013 31.203-10.076 32.176l-.191 3.024 2.876-.921c3.253-1.082 5.551-.935 6.658.386.919 1.1 1.113 2.753 1.075 4.493H91.772c-.798 0-1.457-.424-2.072-1.048-2.788-2.824-3.256-10.752-3.202-13.523l.388-22.494-2.765.963c-3.014 1.047-6.703 1.58-10.965 1.58-14.343 0-30.532-6.004-30.694-6.065l-2.414-.906-.33 2.542c-.994 7.634-6.07 12.108-13.703 18.065-6.818 5.322-5.946 10.786-4.531 12.932l.845 1.279 1.474-.47c.45-.14.849-.23 1.184-.23.543 0 .781.142.96.342.629.706.884 2.39.917 3.552H16.273c-1.95-3.48-1.355-11.733-.395-16.86 5.853-5.32 5.779-10.252 5.677-17.124-.056-3.763-.124-8.447.767-14.41 1.907-12.76 8.932-14.82 25-14.82 2.806 0 5.717.061 9.522.147 13.381.309 21.625-1.896 27.22-6.214 3.123 3.027 11.15 9.394 23.43 9.394.511 0 1.036-.018 1.564-.04.32 16.981-7.024 24.142-7.139 24.25zm26.331-40.067c-2.52 4.681-13.706 6.413-17.804 6.684l-2.161.145.27 2.138c.123.96.212 1.886.29 2.796-11.48.479-18.955-5.351-21.794-8.073 1.874-2.066 3.4-4.464 4.731-7.167 1.911 1.917 5.174 3.33 9.883 4.282 1.036.208 1.995.314 2.874.314 2.45 0 4.276-.812 5.453-2.428 3.081-4.235-.239-12.709-2.678-17.697 10.486 1.794 12.044 7.052 12.103 7.266l.4 1.72 1.768-.154c4.984-.434 8.28.14 9.121 1.535 1.162 1.923-1.372 6.629-2.456 8.639z"/>
        <path fill="#D86B70" d="M72.701 37.162c-5.006-.005-8.737 3.74-8.811 8.228 0 3.305 2.246 6.72 5.244 10.2 2.998 3.48 6.82 7.016 10.213 10.335.296.287.83.287 1.126 0 3.393-3.32 7.215-6.855 10.213-10.334 2.998-3.48 5.244-6.896 5.244-10.2 0-5.094-4.032-8.23-8.41-8.23-3.097 0-5.686 2.502-7.597 4.078-2.11-1.805-4.588-4.03-7.222-4.077zm0 1.567c2.603-.005 4.678 2.535 6.708 4.139a.84.84 0 0 0 1.002 0c2.073-1.623 4.505-4.144 7.108-4.139 3.632.007 6.809 2.351 6.809 6.661 0 .962-.281 2.016-.776 3.135H88.32a.821.821 0 0 0-.725.453l-.877 1.862v-5.841c.004-.445-.45-.84-.9-.784a.815.815 0 0 0-.626.44l-3.417 6.993-.689-2.915a.819.819 0 0 0-.726-.599.825.825 0 0 0-.8.501l-1.653 4.25v-6.71a.807.807 0 0 0-.551-.754.834.834 0 0 0-.9.288L73.489 49.7h-6.645c-.862-1.561-1.352-3.017-1.352-4.31.19-4.03 3.404-6.667 7.209-6.662zm12.416 9.723v5.95c.005.352.282.681.633.754a.831.831 0 0 0 .893-.435l2.178-4.628h3.93c-.836 1.43-1.965 2.942-3.292 4.481-2.753 3.196-6.283 6.507-9.549 9.686-3.266-3.179-6.796-6.49-9.55-9.686a35.06 35.06 0 0 1-2.54-3.306h6.083a.818.818 0 0 0 .65-.33l1.753-2.364v8.572a.815.815 0 0 0 .66.768.83.83 0 0 0 .891-.499l2.266-5.829.613 2.596a.817.817 0 0 0 .693.6.827.827 0 0 0 .809-.44l2.879-5.89z"/>
    </g>
</svg>
