<svg xmlns="http://www.w3.org/2000/svg" width="164" height="111" viewBox="0 0 164 111">
    <g fill="none" fill-rule="evenodd">
        <g fill-rule="nonzero">
            <path fill="#2AB1C3" d="M127.98 105.533c7.04.866 26.498 3.355 33.411 4.149.768.108 2.56.072 2.304-.397-1.536-4.69-10.88-31.567-12.545-36.329-.256-.685-1.024-.794-2.817-.974a5542.455 5542.455 0 0 0-24.322-2.453c-1.92-.217-3.072-.217-5.12 0-8.578.685-35.716 3.03-35.716 3.03s-28.29-2.417-37.124-3.102c-1.92-.18-2.944-.217-5.12.036-5.633.505-18.69 1.876-24.323 2.453-2.304.252-2.56.541-2.816.974C12 77.574 1.759 104.559-.033 109.285c-.128.541 1.536.505 3.072.36 7.681-.865 27.139-3.246 34.052-4.04 1.408-.18 2.816-.289 5.12 0 7.809.902 30.723 3.824 38.276 4.69 1.664.216 3.2.253 5.12 0 7.553-.902 29.7-3.788 37.124-4.726 1.408-.216 3.584-.252 5.249-.036z"/>
            <path fill="#75BF8F" d="M44.221 69.325c-1.02-.035-2.04 0-3.443.141-5.612.495-18.62 1.839-24.232 2.405-2.295.247-2.55.53-2.806.954-1.785 4.561-11.988 31.008-13.773 35.64-.128.53 1.53.494 3.06.353 7.653-.849 27.038-3.182 33.925-3.96 1.02-.106 1.913-.212 3.316-.142l3.953-35.391zm76.138 0c-.51.035-1.02.07-1.658.141-8.545.708-34.562 2.9-35.71 3.006v37.123c.766 0 1.659-.07 2.551-.176 7.525-.884 29.588-3.713 36.985-4.632.51-.07 1.148-.106 1.786-.141l-3.954-35.321z"/>
            <path fill="#FAD38A" d="M60.574 107.737l22.494-6.255 22.88 6.362c4.755-.608 9.383-1.215 13.11-1.68L36.923 83.36 76.77 72.279c-4.113-.357-9.512-.786-14.653-1.215l-34.705 9.65-14.268-3.967c-.514 1.358-1.157 3.002-1.8 4.825l62.212 17.3-26.093 7.256c3.6.43 8.355 1.001 13.11 1.609z"/>
            <path fill="#FAD38A" d="M43.903 80.85l.643-5.408-17.116 4.666-14.284-3.888c-.515 1.343-1.158 2.969-1.802 4.771l31.658 8.694.515-5.124-6.435-1.767 6.821-1.944zm40.28 20.145l21.749 5.973c4.761-.6 9.394-1.201 13.126-1.66l-34.875-9.579v5.266z"/>
        </g>
        <g fill="#474949" fill-rule="nonzero">
            <path d="M108.974 40.545c-.143-4.501-2.1-12.493-4.286-16.107l.004-.038c.198-1.73.722-6.324-.366-9.13-.844-2.178-1.882-4.252-2.885-6.26l-.234-.468c-.823-1.633-1.485-3.318-2.194-5.12-.335-.853-.958-2.44-2.593-2.907-2.33-.67-4.012 1.608-4.731 2.578-2.197 2.96-3.364 6.037-4.218 8.284a.899.899 0 0 1-.972.575c-1.186-.192-3.553-.28-4.513-.293l-.02 1.517-.018-1.517c-.96.013-3.327.1-4.512.293a.894.894 0 0 1-.973-.575c-.854-2.247-2.022-5.325-4.217-8.283-.72-.97-2.406-3.242-4.732-2.58-1.635.468-2.258 2.055-2.601 2.927-.701 1.783-1.363 3.467-2.19 5.106l-.23.462c-1.004 2.008-2.041 4.082-2.885 6.26-1.088 2.806-.564 7.4-.367 9.13l.004.033c-2.175 3.576-4.14 11.6-4.285 16.113l-.016.48c-.154 4.497-.3 8.744 7.554 18.469 6.788 8.403 15.48 9.196 18.518 9.196.453 0 .775-.018.952-.03.176.012.499.03.952.03 3.038 0 11.73-.794 18.518-9.196 7.853-9.724 7.707-13.972 7.553-18.47l-.017-.479zm-46.99-14.811c.368-.501.321-.92.234-1.683-.157-1.377-.636-5.571.179-7.672.793-2.044 1.797-4.054 2.768-5.997l.23-.46c.887-1.759 1.606-3.588 2.31-5.378.272-.695.482-1.068.621-1.108.037-.007.385-.055 1.523 1.482 1.945 2.62 2.983 5.353 3.816 7.549.657 1.731 2.44 2.78 4.245 2.482.866-.141 2.94-.24 4.057-.255 1.118.015 3.191.114 4.058.254 1.798.297 3.587-.75 4.243-2.482.833-2.197 1.872-4.929 3.817-7.55 1.14-1.537 1.481-1.488 1.522-1.48.14.04.35.412.63 1.128.696 1.769 1.415 3.598 2.299 5.353l.233.464c.971 1.944 1.976 3.953 2.768 5.997.815 2.102.336 6.295.179 7.673-.087.761-.135 1.181.212 1.653 1.75 2.496 3.908 10.453 4.05 14.938l.012.373a11.228 11.228 0 0 0-4.928-4.194c-.803-.352-1.305-1.221-1.193-2.068.067-.497.097-1.008.09-1.52-.082-5.237-4.35-9.667-9.515-9.875-2.713-.13-5.311.88-7.276 2.793a10.09 10.09 0 0 0-1.563 1.974 10.066 10.066 0 0 0-1.565-1.973c-1.968-1.914-4.561-2.914-7.289-2.793-5.162.212-9.425 4.644-9.504 9.88a10.4 10.4 0 0 0 .088 1.516c.114.855-.397 1.713-1.243 2.09a11.154 11.154 0 0 0-4.101 3.14c.312-4.565 2.345-11.9 3.994-14.251zm15.531 30.089c1.047-.08 2.05-.352 2.957-.63v1.883c0 .838.67 1.518 1.498 1.518.827 0 1.498-.68 1.498-1.518v-1.883c.908.279 1.91.55 2.957.63a7.521 7.521 0 0 1-.023 2.28c-.158.955-.4 1.932-.741 2.986-.27.836-.515 1.179-1.104 2.006-.283.368-1.758.963-2.586.963h-.02c-.81 0-2.287-.594-2.568-.961-.59-.83-.834-1.175-1.104-2.008a20.445 20.445 0 0 1-.742-2.987 7.502 7.502 0 0 1-.022-2.28zm4.444 11.267h.015l-.007.08-.008-.08zm17.159-9.517c-4.121 5.1-9.01 7.007-12.49 7.702.132-.13.259-.264.36-.406.64-.9 1.104-1.553 1.52-2.834.388-1.2.666-2.324.85-3.431.18-1.095.182-2.171.026-3.255.072-.033.144-.057.217-.094 1.59-.806 2.843-2.4 3.622-4.612a43.615 43.615 0 0 0 1.56-5.707 1.517 1.517 0 0 0-1.166-1.791 1.495 1.495 0 0 0-1.769 1.181 40.437 40.437 0 0 1-1.448 5.297c-.359 1.018-1.02 2.35-2.14 2.917-1.181.6-2.583.166-4.208-.337l-.583-.18v-1.045a4.114 4.114 0 0 0 2.773-3.903c0-1.644-1.316-2.977-2.94-2.977H80.64c-1.624 0-2.94 1.333-2.94 2.977a4.116 4.116 0 0 0 2.774 3.904v1.045l-.584.18c-1.625.502-3.027.937-4.209.337-1.119-.567-1.781-1.899-2.139-2.917a40.437 40.437 0 0 1-1.448-5.297 1.5 1.5 0 0 0-1.769-1.181c-.81.169-1.332.97-1.166 1.79.4 1.97.94 3.942 1.56 5.708.78 2.211 2.032 3.806 3.622 4.612.073.036.146.06.217.093a10.515 10.515 0 0 0 .026 3.255 23.41 23.41 0 0 0 .85 3.43c.414 1.28.878 1.932 1.52 2.835.095.133.216.257.338.38-3.49-.708-8.389-2.62-12.473-7.676-3.97-4.916-5.693-8.186-6.417-10.823.179-3.096 2.08-5.877 4.897-7.125 2.064-.916 3.302-3.085 3.01-5.276a7.156 7.156 0 0 1-.061-1.064c.055-3.651 3.03-6.744 6.63-6.893 1.917-.067 3.718.615 5.092 1.95a6.992 6.992 0 0 1 2.128 5.055c0 .838.671 1.518 1.498 1.518l.015-.002.015.002c.827 0 1.499-.68 1.499-1.518 0-1.926.755-3.722 2.125-5.056a6.827 6.827 0 0 1 5.08-1.95c3.603.145 6.58 3.237 6.636 6.89.006.36-.015.718-.062 1.067a5.045 5.045 0 0 0 2.974 5.26c3.01 1.315 4.955 4.314 4.955 7.636 0 .751-.1 1.475-.288 2.156-1.012 2.16-2.68 4.773-5.426 8.173z"/>
            <path d="M92.687 16.006c1.43.885 4.108 2.565 5.099 3.343.405.318.997.016.982-.504-.046-1.55-.226-3.017-.942-4.493-.547-1.126-1.31-2.15-1.71-3.339-.12-.359-.21-.74-.441-1.037-.36-.463-1.016-.494-1.368-.01l-2.082 4.464a1.237 1.237 0 0 0 .462 1.576zM66.148 19.35c.991-.779 3.668-2.458 5.098-3.344.53-.328.728-1.006.463-1.576l-2.082-4.464c-.352-.484-1.008-.453-1.368.01-.23.298-.322.679-.442 1.037-.398 1.189-1.162 2.213-1.71 3.34-.716 1.475-.895 2.942-.941 4.492a.61.61 0 0 0 .982.504zM91.235 31.199a4.352 4.352 0 0 0-3.638.97 1.53 1.53 0 0 0-.186 2.138 1.484 1.484 0 0 0 2.11.189 1.388 1.388 0 0 1 1.17-.313c.246.046.702.2.984.715a1.494 1.494 0 0 0 2.04.586 1.528 1.528 0 0 0 .578-2.066 4.405 4.405 0 0 0-3.058-2.22zM72.704 31.199a4.408 4.408 0 0 0-3.058 2.22 1.53 1.53 0 0 0 .578 2.066 1.494 1.494 0 0 0 2.04-.586 1.4 1.4 0 0 1 .983-.714 1.39 1.39 0 0 1 1.17.312 1.485 1.485 0 0 0 2.11-.189 1.53 1.53 0 0 0-.186-2.137 4.35 4.35 0 0 0-3.637-.972z"/>
        </g>
        <path fill="#FFF" d="M50.731 37.335l4.77 16.697L66.63 37.335l-3.093-12.198-4.857-6.083z"/>
        <path fill="#2AB1C3" fill-rule="nonzero" d="M48.9 13.88c-10.297 0-18.68 8.645-18.68 19.264 0 1.21.107 2.428.332 3.617a19.382 19.382 0 0 0 1.378 4.443c2.012 4.887 6.438 12.394 16.15 20.434.244.201.537.302.83.302.293 0 .586-.1.83-.302 9.702-8.04 14.138-15.547 16.15-20.433a19.164 19.164 0 0 0 1.378-4.444c.215-1.189.332-2.408.332-3.617-.02-10.62-8.402-19.264-18.7-19.264zm15.75 22.408c0 .02-.01.04-.01.06l-.088.434v.02a16.34 16.34 0 0 1-1.085 3.284c-.01.01-.01.03-.02.04-1.826 4.464-5.832 11.275-14.547 18.7-8.715-7.425-12.72-14.236-14.547-18.7-.01-.01-.01-.03-.02-.04a17.43 17.43 0 0 1-1.084-3.284v-.02c-.059-.232-.078-.383-.088-.434 0-.02-.01-.04-.01-.07a16.952 16.952 0 0 1-.293-3.144c0-9.118 7.2-16.544 16.042-16.544 8.842 0 16.043 7.426 16.043 16.544a16.9 16.9 0 0 1-.294 3.154z"/>
        <path fill="#2AB1C3" fill-rule="nonzero" d="M49.355 21c-6.621 0-12.015 5.594-12.015 12.46 0 6.866 5.394 12.46 12.015 12.46S61.37 40.326 61.37 33.46c0-6.866-5.394-12.46-12.015-12.46zm0 22.149c-5.156 0-9.343-4.352-9.343-9.689s4.197-9.689 9.343-9.689 9.343 4.352 9.343 9.689-4.187 9.689-9.343 9.689z"/>
    </g>
</svg>
