<svg xmlns="http://www.w3.org/2000/svg" width="101" height="114" viewBox="0 0 101 114">
    <g fill="none" fill-rule="nonzero" transform="translate(.58 .75)">
        <circle cx="39.16" cy="13.35" r="2.67" fill="#474949"/>
        <path fill="#474949" stroke="#FFF" d="M77.982 97.338c-.814-2.295-2.35-4.016-4.44-4.982-1.282-.588-2.78-.89-4.45-.89-2.062 0-4.367.474-6.32 1.3l-1.243.512c-.268.109-.535.22-.802.328-.305-2.492-.596-5.498-.899-8.657-1.578-16.422-4.002-41.55-14.719-51.481a36.842 36.842 0 0 0 1.313-5.716l5.906 2.844a1.925 1.925 0 0 0 1.911-.137c.574-.383.92-1.045.92-1.756C55.16 12.875 42.835 0 27.684 0 12.533 0 .207 12.875.207 28.703c0 .66.302 1.286.813 1.678a1.924 1.924 0 0 0 1.775.311l6.341-2.06a34.21 34.21 0 0 0 1.096 4.803c-1.084 1.454-2.101 3.256-3.103 5.47-2.469 5.453-3.885 12.624-3.885 19.664 0 1.8.1 3.47.281 5.017-.07.029-.15.046-.218.08-2.1.997-3.307 2.89-3.307 5.191 0 5.314 5.467 23.624 6.134 25.308.95 2.399 3.881 3.192 6.029 3.454l.003 2.79c-.001.298.057 1.85 1.315 3.167 1.055 1.106 2.573 1.669 4.508 1.669 2.02 0 3.566-.59 4.598-1.745a4.609 4.609 0 0 0 1.16-3.078c.027-.836.056-1.734.089-2.67h9.214l.132 2.682a4.423 4.423 0 0 0 1.088 2.94c1.08 1.242 2.78 1.871 5.055 1.871 2.313 0 4.041-.635 5.133-1.885a4.398 4.398 0 0 0 1.093-2.99c0-.826-.008-1.73-.023-2.687 2.11-.168 4.984-.738 6.105-2.58.56-.927 1.432-4.679 2.27-9.132.383 3.965.724 7.448 1.113 10.161-5.306 2.593-8.024 4.927-8.78 7.513a5.176 5.176 0 0 0 .666 4.373c2.464 3.72 9.06 4.122 11.78 4.122.532 0 .879-.014.942-.018 1.645-.086 2.925-1.552 2.848-3.275-.076-1.665-1.387-2.973-3.13-2.973h-.007c-.302.014-.625.025-.958.025-2.732 0-5.665-.463-7.263-.904.961-.522 2.42-1.229 3.933-1.958l1.549-.755c1.599 2.916 5.152 4.571 9.868 4.571 2.469 0 5.035-.5 7.043-1.368 4.717-2.04 5.36-5.664 4.475-8.147zM17.105 11.306c1.091 0 1.975.923 1.975 2.065 0 1.139-.884 2.061-1.975 2.061-1.09 0-1.975-.922-1.975-2.06 0-1.142.885-2.066 1.975-2.066zm7.63-6.922a22.24 22.24 0 0 1 2.948-.215c11.859 0 21.693 9.227 23.265 21.174l-4.082-1.967c.072-1.235.117-2.579.117-4.065 0-1.149-.894-2.082-1.996-2.082-1.101 0-1.994.933-1.994 2.082 0 5.606-.599 9.03-1.328 11.677a14.88 14.88 0 0 0-3.708-1.379 2.13 2.13 0 0 0 .253-1.717c-.32-1.098-1.432-1.715-2.489-1.393-.045.014-4.654 1.34-5.907-1.062a2.01 2.01 0 0 0-.43-.543c.093-.09.183-.183.259-.287l3-4.208a2.158 2.158 0 0 0 .182-2.18c-.339-.703-1.029-1.149-1.783-1.149h-6.106c-.761 0-1.455.453-1.792 1.163a2.164 2.164 0 0 0 .211 2.194l3.106 4.208c.074.1.161.183.251.265a2.137 2.137 0 0 0-.341.427c-1.46 2.438-5.944 1.178-5.982 1.166-1.058-.322-2.168.309-2.476 1.412a2.16 2.16 0 0 0-.063.754c-1.605.223-3.033.726-4.331 1.573-.466-1.997-.84-4.52-.968-8.111 5.925-1.087 14.764-5.683 12.183-17.737zm7.177 26.607c-.044.139-.133.348-.32.553-.588.646-1.841 1.002-3.53 1.002-2.664 0-3.512-.952-3.776-1.638 1.3-.172 2.6-.584 3.711-1.414 1.142.907 2.526 1.342 3.915 1.497zM9.824 92.572c-.648-1.634-5.831-19.29-5.831-23.713 0-.324.074-.654.357-.96 1.323 4.747 3.773 7.48 7.034 7.48.25 0 .473-.035.705-.066.01 4.33.026 8.62.042 12.54l.022 5.548c-1.15-.194-2.115-.516-2.329-.829zm1.559-19.28c-3.732 0-6.143-5.776-6.143-14.721 0-6.744 1.347-13.587 3.694-18.776 2.926-6.463 5.777-9.013 10.38-9.181-5.065 2.564-8.23 9.307-8.577 10.071-2.193 4.848-3.501 11.533-3.501 17.886 0 6.628 1.585 13.784 4.145 13.784 1.522 0 2.62-1.275 2.91-17.95.016-.922.004-1.943-.01-3.023-.07-5.5-.164-12.73 3.66-17.016-1.587 3.174-1.605 9.4-1.623 15.881a292.918 292.918 0 0 1-.032 4.194c-.202 11.689-.547 18.852-4.903 18.852zM9.495 63.16a39.806 39.806 0 0 1-.262-4.59c0-5.928 1.19-12.124 3.183-16.681.02.588.017 1.228-.026 1.95-.194 3.35-.276 9.96-.301 17.634-.04.882-.084 1.684-.13 2.405-.785-.33-1.62-.557-2.464-.718zm2.04 5.14c-.108.73-.218 1.233-.32 1.57-.251-.43-.552-1.178-.841-2.161.416.168.812.363 1.161.592zm27.793 32.779c-1.558 0-2.132-.416-2.162-.46.01-.1.013-.204.007-.304-.07-1.454-1.74-35.667-2.392-40.052-.17-1.137-1.197-1.93-2.279-1.738-1.089.177-1.835 1.242-1.665 2.381.415 2.783 1.358 19.951 2.005 32.68h-8.86c.438-12.666 1.072-29.674 1.336-32.159.123-1.14-.667-2.173-1.763-2.301-1.086-.133-2.082.697-2.203 1.842-.412 3.88-1.545 37.932-1.593 39.491-.025.367-.752.621-1.766.621-1.08 0-1.783-.288-1.833-.66 0-3.268-.017-7.663-.037-12.582-.02-4.786-.04-10.11-.049-15.398 1.948-3.622 2.075-10.244 2.21-17.956.022-1.357.026-2.783.03-4.227.02-6.743.047-15.974 2.696-15.974.217 0 .417-.054.594-.147.074.09.119.18.199.27 1.403 1.533 3.51 2.312 6.258 2.312 2.874 0 5.033-.772 6.421-2.298.106-.115.19-.234.281-.351 1.989.017 3.753.68 5.332 1.835-.683 2.206-1.186 4.597-.98 8.19.914 15.753 2.447 44.016 2.396 56.466-.075.08-.539.519-2.183.519zm3.773-57.24c-.106-1.853.003-3.265.25-4.539 3.745 5.293 6.091 13.982 7.678 23.15-2.2-.432-4.709-.123-6.854.908-.374-7.215-.76-14.109-1.074-19.52zm5.173 48.984c-.41.28-1.566.542-2.827.675-.182-7.143-.581-16.343-1.034-25.452.025-.019.054-.021.079-.043 1.757-1.547 4.94-2.104 6.81-1.191.195.093.337.2.47.304.164 1.129.318 2.252.464 3.376-.579 6.37-3.13 20.115-3.962 22.33zm5.939 8.323c-4.79 2.313-5.81 2.836-6.007 3.814-.06.298.007.606.185.85 1.206 1.639 7.84 2.174 9.989 2.174.372 0 .724-.008 1.102-.03.534 0 .975.44.998.997.025.574-.4 1.062-.953 1.09-.062.004-.367.015-.842.015-1.876 0-8.159-.23-10.139-3.22a3.015 3.015 0 0 1-.397-2.583c.542-1.86 2.949-3.834 7.29-6.007l.475 2.076-1.701.824zm18.535 2.416c-1.774.768-4.063 1.207-6.28 1.207-4.138.003-7.253-1.46-8.332-3.914a4.934 4.934 0 0 1-.111-.277l-.923-4.022c-.44-2.822-.809-6.668-1.246-11.193-1.876-19.51-4.993-51.836-20.094-53.318.064-.245.107-.471.132-.665 16.93 1.702 20.06 34.159 21.948 53.786.362 3.753.703 7.294 1.082 10.05l.002.008v.006l.819 5.391c.024.143.076.273.146.388.02.069.028.14.057.2.586 1.338 2.35 2.012 5.242 2.012 2.707 0 6-.635 8.186-1.584 1.06-.46 2.763-1.436 2.261-2.85-.442-1.247-1.199-2.104-2.31-2.618-.566-.262-1.254-.388-2.1-.388-3.047 0-7.098 1.695-7.262 1.763l-1.282.528c-.42.173-.755.255-1.077.335l-.17.042-.415-2.718c.412-.172.821-.341 1.235-.512l1.254-.518c3.06-1.291 6.857-1.53 9.227-.437 1.585.732 2.75 2.045 3.375 3.799.78 2.192-.478 4.247-3.364 5.5zm-10.865-3.083l.18-.043c.404-.1.823-.205 1.35-.42l1.29-.535c1.323-.557 4.389-1.612 6.522-1.612.693 0 1.086.115 1.294.208.501.234.844.56 1.092 1.066a4.995 4.995 0 0 1-1 .568c-1.968.854-4.953 1.429-7.423 1.429-2.067-.002-2.992-.403-3.305-.66z"/>
        <path fill="#474949" d="M94.066 9.79H69.628c-3.038 0-5.548 2.492-5.548 5.509V66.58c0 3.017 2.51 5.509 5.548 5.509h24.504c3.038 0 5.548-2.492 5.548-5.509V15.3c0-3.083-2.51-5.509-5.614-5.509zm-15.984 4.328h7.464c.462 0 .858.394.858.853 0 .459-.396.852-.858.852h-7.464a.871.871 0 0 1-.858-.852c0-.46.462-.853.858-.853zm3.765 54.234c-1.123 0-2.048-.918-2.048-2.033 0-1.115.925-2.033 2.048-2.033s2.047.918 2.047 2.033c0 1.115-.924 2.033-2.047 2.033zm15.191-7.214H66.722V20.02h30.316v41.118z"/>
        <path fill="#75BF8F" d="M76.538 48.848c0-1.921-1.618-3.458-3.559-3.458a3.56 3.56 0 0 0-3.558 3.458c0 .256-.13 2.689 3.235 5.314a.497.497 0 0 0 .323.128c.13 0 .194-.064.324-.128 3.43-2.625 3.235-5.058 3.235-5.314zm-6.147.128v-.064c0-1.41 1.165-2.562 2.588-2.562 1.424 0 2.588 1.153 2.588 2.562v.064s.195 1.985-2.588 4.29c-2.782-2.305-2.588-4.29-2.588-4.29z"/>
        <path fill="#75BF8F" d="M74.76 48.505c0-.712-.771-1.335-1.78-1.335-.95 0-1.78.578-1.78 1.335 0 .756.771 1.335 1.78 1.335 1.009-.045 1.78-.623 1.78-1.335zm-.83 0c0 .356-.416.667-.89.667-.475 0-.89-.311-.89-.667 0-.356.415-.668.89-.668.474 0 .89.267.89.668zM90.77 34.71c.129 0 .258-.064.322-.128 3.42-2.625 3.291-5.058 3.227-5.314 0-1.921-1.613-3.458-3.55-3.458-1.935 0-3.484 1.537-3.548 3.458 0 .256-.13 2.689 3.226 5.314.13.128.194.128.323.128zm0-1.024c-2.775-2.305-2.581-4.226-2.581-4.29v-.064c0-1.41 1.161-2.562 2.58-2.562 1.42 0 2.582 1.153 2.582 2.562v.064c0 .064.193 1.985-2.581 4.29z"/>
        <path fill="#75BF8F" d="M89.89 26.7c-.95 0-1.78.771-1.78 1.78s.771 1.78 1.78 1.78c.95 0 1.78-.771 1.78-1.78s-.83-1.78-1.78-1.78zm.89 1.72c0 .475-.415.89-.89.89a.913.913 0 0 1-.89-.89c0-.474.415-.89.89-.89.475 0 .89.416.89.89zM92.093 51.62c-.302 0-.528.218-.528.509 0 1.09-.905 1.961-2.037 1.961-.302 0-.528.218-.528.509 0 .29.15.581.453.581 1.735 0 3.092-1.38 3.092-2.979a.47.47 0 0 0-.452-.581zM89.519 43.61a.507.507 0 0 0-.519.52c0 .296.222.518.519.518 1.111 0 2 .89 2 2.003 0 .296.223.519.52.519a.507.507 0 0 0 .518-.52c.074-1.63-1.334-3.04-3.038-3.04zM79.58 43.61c.297 0 .52-.167.52-.39 0-.222-.223-.389-.52-.389-1.112 0-2.002-.667-2.002-1.502 0-.222-.222-.389-.519-.389-.297 0-.519.167-.519.39 0 1.223 1.335 2.28 3.04 2.28zM77.06 36.49c.296 0 .518-.223.518-.52 0-1.112.89-2.002 2.003-2.002.296 0 .519-.222.519-.519a.507.507 0 0 0-.52-.519c-1.705 0-3.04 1.41-3.04 3.04 0 .297.222.52.52.52zM88.502 54.29h-2.564c-.284 0-.498.19-.498.445 0 .254.214.445.498.445h2.564c.284 0 .498-.19.498-.445 0-.254-.214-.445-.498-.445z"/>
        <path fill="#75BF8F" d="M88.502 43.61h-2.564c-.284 0-.498.19-.498.445 0 .254.214.445.498.445h2.564c.284 0 .498-.19.498-.445 0-.19-.214-.445-.498-.445zM88.502 33.82c.284 0 .498-.19.498-.445 0-.254-.214-.445-.498-.445h-2.564c-.284 0-.498.19-.498.445 0 .254.214.445.498.445h2.564zM83.152 43.61h-2.555c-.284 0-.497.19-.497.445 0 .254.213.445.497.445h2.555c.284 0 .497-.19.497-.445.07-.19-.213-.445-.497-.445zM83.162 33.82c.284 0 .498-.19.498-.445 0-.254-.214-.445-.498-.445h-2.564c-.284 0-.498.19-.498.445 0 .254.214.445.498.445h2.564zM83.162 54.29h-2.564c-.284 0-.498.19-.498.445 0 .254.214.445.498.445h2.564c.284 0 .498-.19.498-.445 0-.254-.214-.445-.498-.445zM79.602 54.29h-2.564c-.284 0-.498.178-.498.415 0 .238.214.475.498.475h2.564c.284 0 .498-.178.498-.415a.497.497 0 0 0-.498-.475zM92.115 47.17c-.254 0-.445.16-.445.374v1.922c0 .214.19.374.445.374.254 0 .445-.16.445-.374v-1.922c0-.16-.19-.374-.445-.374zM76.985 40.94c.254 0 .445-.214.445-.498v-2.564c0-.284-.19-.498-.445-.498-.254 0-.445.214-.445.498v2.564c0 .213.19.498.445.498z"/>
    </g>
</svg>
