<?xml version="1.0" encoding="UTF-8"?>
<svg width="87px" height="88px" viewBox="0 0 87 88" version="1.1" xmlns="http://www.w3.org/2000/svg" xmlns:xlink="http://www.w3.org/1999/xlink">
    <!-- Generator: sketchtool 49.1 (51147) - http://www.bohemiancoding.com/sketch -->
    <title>FE915185-8B7C-446E-BB8E-B4C2DDB400E8</title>
    <desc>Created with sketchtool.</desc>
    <defs></defs>
    <g id="Mobile" stroke="none" stroke-width="1" fill="none" fill-rule="evenodd">
        <g id="D.1---Home" transform="translate(-211.000000, -1093.000000)" fill-rule="nonzero">
            <g id="Feature-Overview-Pane" transform="translate(-3.000000, 699.000000)">
                <g id="Features" transform="translate(118.000000, 371.750000)">
                    <g id="Location-Tracking" transform="translate(0.000000, 0.890000)">
                        <g id="safe-zone" transform="translate(97.000000, 23.000000)">
                            <path d="M59.5885355,61.7488195 C58.8103772,61.6575785 58.1086198,62.1941303 58.0180705,62.9417622 C57.9275212,63.689394 58.4821358,64.3662119 59.2574645,64.4533675 C74.1358518,66.1392842 82.0603333,70.6822712 82.0603333,73.3146434 C82.0603333,77.0105867 66.9895287,82.1663867 42.445,82.1663867 C17.9004713,82.1663867 2.82966667,77.0105867 2.82966667,73.3146434 C2.82966667,70.6822712 10.7541482,66.1392842 25.6325355,64.4533675 C26.4078642,64.3662119 26.9624788,63.6880322 26.8719295,62.9417622 C26.7799653,62.1941303 26.078208,61.6548549 25.3014645,61.7488195 C10.4046843,63.4374598 0,68.1928886 0,73.3146434 C0,79.0669147 14.5798575,84.89 42.445,84.89 C70.3101425,84.89 84.89,79.0669147 84.89,73.3146434 C84.89,68.1928886 74.4853157,63.4374598 59.5885355,61.7488195 Z" id="Shape" stroke="#FAC45F" fill="#FAC45F"></path>
                            <path d="M42.447733,77.1727273 L64.0573953,45.9453752 C72.1626034,35.1341183 70.9906303,17.3634056 61.5486404,7.9178257 C56.4466134,2.81168784 49.6626923,0 42.447733,0 C35.2327737,0 28.4488526,2.81168784 23.3468256,7.91641633 C13.9048357,17.3619962 12.7328626,35.132709 20.8056724,45.9016848 L42.447733,77.1727273 Z M42.697059,16.912408 C48.134338,16.912408 52.5574094,21.3392308 52.5574094,26.7779794 C52.5574094,32.216728 48.134338,36.6435508 42.697059,36.6435508 C37.25978,36.6435508 32.8367086,32.216728 32.8367086,26.7779794 C32.8367086,21.3392308 37.25978,16.912408 42.697059,16.912408 Z" id="Shape" stroke="#2AB1C3" stroke-width="2" fill="#2AB1C3"></path>
                        </g>
                    </g>
                </g>
            </g>
        </g>
    </g>
</svg>